<?xml version="1.0" encoding="UTF-8"?>
<!DOCTYPE svg PUBLIC "-//W3C//DTD SVG 1.1//EN" "http://www.w3.org/Graphics/SVG/1.1/DTD/svg11.dtd">
<!-- Creator: CorelDRAW 2026 -->
<svg xmlns="http://www.w3.org/2000/svg" xml:space="preserve" width="627px" height="631px" version="1.1" style="shape-rendering:geometricPrecision; text-rendering:geometricPrecision; image-rendering:optimizeQuality; fill-rule:evenodd; clip-rule:evenodd"
viewBox="0 0 2115.51 2128.81"
 xmlns:xlink="http://www.w3.org/1999/xlink"
 xmlns:xodm="http://www.corel.com/coreldraw/odm/2003">
 <defs>
  <style type="text/css">
   <![CDATA[
    .fil0 {fill:#FEFEFE}
    .fil1 {fill:#FEFEFE;fill-rule:nonzero}
   ]]>
  </style>
 </defs>
 <g id="Camada_x0020_1">
  <metadata id="CorelCorpID_0Corel-Layer"/>
  <g id="_2204022491840">
   <path class="fil0" d="M1038.86 207.27c102.17,-11.86 181.5,64.05 191.78,152.12 11.85,101.53 -62.19,181.07 -150.84,192.17 -101.96,12.77 -183.23,-61.26 -194.23,-149.27 -13.06,-104.51 61.67,-184.4 153.29,-195.02zm-19.49 -204.18c-67.5,9.13 -117.43,27.01 -164.5,58.8 -48.26,32.6 -77.35,62.52 -109.98,112.05 -67.1,101.85 -75.84,229.98 -30.34,354.68 49.66,136.11 212.18,342.9 310.7,466.3 40.31,50.49 24.01,50.72 77.82,-16l73.79 -93.89c15.82,-20.52 31.71,-42.01 47.59,-63.45 72.63,-98.01 170.17,-240.02 197.12,-357.91 58.31,-255.07 -157.74,-493.67 -402.2,-460.58z"/>
   <path class="fil0" d="M1354.99 1424.81c0.58,-15.14 -71.93,-204.77 -82.87,-235.14 -12.16,-33.8 -12.57,-48.95 -29.86,-50.2 -32.65,-2.38 -194.23,-0.07 -236.24,-0.17 -52.6,-0.12 -105.62,-0.4 -158.19,0.2 -18.48,0.22 -63.86,-5.49 -72.62,7.56l-69.23 166.94c-6.11,14.45 -46.7,102.34 -41.91,111.25 12.73,3.2 680.4,2.27 690.92,-0.44z"/>
   <path class="fil0" d="M1801.75 1382.73c54.32,-65.9 16.62,-156.25 -27.53,-218.19 -15.27,-21.41 -38.03,-25.42 -74.03,-25.31l-347.09 0.06c-15.67,-0.15 -37.06,-5.03 -29.86,16.61 22.62,68.08 66.97,174.38 95.42,250.88 6.87,18.47 8.6,19.76 31.2,19.68 66.12,-0.23 132.26,-0.01 198.38,-0.05 77.59,-0.05 113.82,4.48 153.51,-43.68z"/>
   <path class="fil0" d="M992.99 1076.75c-0.71,-6.37 -15.88,-24.28 -20.79,-31.13l-111.3 -150.87c-52.04,-66.81 -37.41,-72.03 -86.26,-72.26 -17.32,-0.08 -34.63,-0.07 -51.95,-0.01 -66.67,0.22 -142.13,-12.57 -174.85,35.63l-126.56 187.57c-5.94,8.92 -19.5,27.94 0.5,32.72l154.52 0.62c47.09,0.1 404.87,3.38 416.69,-2.27z"/>
   <path class="fil0" d="M705.14 1144.93c-15.81,-10.45 -60.32,-5.56 -83.98,-5.38 -51.07,0.39 -231.53,-5.17 -256.14,5.72 -28.44,12.58 -57.24,71.35 -69.78,107.21 -25.26,72.16 8.22,152.8 79.92,170.45 23.06,5.68 141.34,3.85 172.81,3.5 47.74,-0.53 39.09,6.4 56.25,-32.35 18.23,-41.16 34.96,-82.59 52.48,-124.62 8.08,-19.41 50.66,-110.6 48.44,-124.53z"/>
   <path class="fil0" d="M1314.35 823.8c-14.02,3.56 -17.24,11.94 -23.91,21.3l-37.83 51.92c-4.59,5.89 -19.43,20.47 -5.45,23.63 22.05,4.99 149.45,0.37 181.59,0.08 22.6,-0.21 19,-0.23 40.15,50.79l39.55 95.23c7,16.12 10.66,12.46 31.15,12.27l137.08 0.01c46.27,-0.12 26.78,-19.25 -7.44,-69.33 -24.47,-35.81 -48.75,-72.8 -72.9,-109.01 -24.52,-36.78 -43.01,-76.18 -101.51,-78.09 -27.52,-0.89 -163.51,-3.1 -180.48,1.2z"/>
   <path class="fil0" d="M1457.53 1078.44c-1.93,-10.32 -41.63,-107.68 -46.1,-112.99 -18.86,-2.8 -56.59,-1.21 -77.21,-1.02 -10.06,0.09 -68.61,-2.91 -72.28,3.5 -1.98,3.45 32.62,101.93 37.85,111.31l157.74 -0.8z"/>
   <path class="fil0" d="M1205.07 968.67c-8.34,3.23 -8.36,6.18 -13.94,13.31 -14.36,18.33 -67.09,86.23 -69.26,96.79l116.85 0.14c1.16,-10.83 -28.68,-94.41 -33.65,-110.24z"/>
   <path class="fil1" d="M430.34 1624l-59.47 58.86c-37.62,-39.79 -81.54,-59.68 -131.63,-59.68 -43.6,0 -80.19,14.43 -109.68,43.39 -29.47,28.97 -44.22,64.12 -44.22,105.55 0,42.78 15.26,79.06 45.88,108.85 30.61,29.79 68.34,44.63 113.17,44.63 29.17,0 53.81,-6.18 73.81,-18.45 19.99,-12.26 36.18,-31.44 48.44,-57.62l-128.53 0 0 -79.16 223.26 0 0.62 18.66c0,38.86 -10.1,75.66 -30.2,110.5 -20.2,34.73 -46.29,61.33 -78.24,79.67 -32.06,18.25 -69.68,27.42 -112.76,27.42 -46.08,0 -87.21,-10 -123.39,-29.99 -36.18,-20.1 -64.73,-48.55 -85.86,-85.56 -21.03,-37.1 -31.54,-77 -31.54,-119.87 0,-58.76 19.48,-109.88 58.34,-153.28 46.08,-51.74 106.17,-77.62 180.07,-77.62 38.66,0 74.84,7.11 108.54,21.44 28.35,12.06 56.18,32.89 83.39,62.26z"/>
   <polygon id="_1" class="fil1" points="539.81,1551.44 782.25,1551.44 782.25,1634.31 623.92,1634.31 623.92,1714.09 782.25,1714.09 782.25,1795.73 623.92,1795.73 623.92,1912.62 782.25,1912.62 782.25,1995.49 539.81,1995.49 "/>
   <path id="_2" class="fil1" d="M1070.14 1540.3c62.78,0 116.79,22.78 161.93,68.24 45.26,45.46 67.83,100.91 67.83,166.26 0,64.84 -22.27,119.68 -66.9,164.51 -44.53,44.84 -98.64,67.31 -162.24,67.31 -66.69,0 -122.04,-23.09 -166.06,-69.16 -44.11,-46.08 -66.17,-100.81 -66.17,-164.2 0,-42.37 10.3,-81.43 30.82,-117.1 20.51,-35.56 48.75,-63.8 84.63,-84.63 35.97,-20.81 74.72,-31.23 116.16,-31.23zm-1.24 82.88c-40.92,0 -75.34,14.33 -103.18,42.88 -27.93,28.55 -41.84,64.83 -41.84,108.95 0,49.06 17.52,87.92 52.67,116.48 27.31,22.36 58.54,33.5 93.9,33.5 39.89,0 73.91,-14.54 101.94,-43.5 28.14,-28.97 42.16,-64.63 42.16,-107.1 0,-42.26 -14.12,-78.03 -42.47,-107.3 -28.24,-29.28 -62.67,-43.91 -103.18,-43.91z"/>
   <path class="fil1" d="M1533.87 1939.11l0 49.83c-25.39,9.45 -50.21,14.16 -74.56,14.16 -40.02,0 -72.01,-11.8 -95.79,-35.48 -23.88,-23.69 -35.77,-55.31 -35.77,-95.04 0,-40.11 11.61,-72.48 34.82,-97.02 23.22,-24.63 53.8,-36.9 91.74,-36.9 13.21,0 25.1,1.23 35.58,3.77 10.47,2.46 23.5,7.08 38.88,13.88l0 53.7c-25.67,-16.24 -49.55,-24.35 -71.54,-24.35 -22.93,0 -41.71,8.02 -56.43,23.97 -14.73,16.04 -22.09,36.43 -22.09,61.25 0,26.05 7.93,46.81 23.78,62.19 15.95,15.39 37.28,23.03 64.27,23.03 19.45,0 41.82,-5.66 67.11,-16.99z"/>
   <path id="_1_2" class="fil1" d="M1616.45 1637.3c8.3,0 15.38,2.83 21.23,8.59 5.95,5.66 8.87,12.73 8.87,20.95 0,8.11 -2.92,15.19 -8.87,21.04 -5.85,5.95 -12.93,8.87 -21.23,8.87 -7.74,0 -14.63,-3.01 -20.48,-8.96 -5.95,-6.04 -8.88,-13.02 -8.88,-20.95 0,-7.74 2.93,-14.54 8.88,-20.58 5.85,-5.94 12.74,-8.96 20.48,-8.96zm-24.83 107.02l50.4 0 0 254.25 -50.4 0 0 -254.25z"/>
   <path id="_2_3" class="fil1" d="M1678.92 1784.62l94.57 -92.96 0 52.66 80.41 0 0 45.3 -80.41 0 0 124.58c0,29.07 12.08,43.6 36.24,43.6 18.03,0 37.09,-5.85 57.19,-17.55l0 46.62c-19.34,10.85 -40.48,16.23 -63.32,16.23 -23.03,0 -42.29,-6.7 -57.57,-20.2 -4.82,-4.05 -8.78,-8.58 -11.89,-13.68 -3.12,-5.1 -5.76,-11.7 -7.84,-19.91 -2.17,-8.21 -3.21,-23.79 -3.21,-46.91l0 -112.78 -44.17 0 0 -5z"/>
   <polygon id="_3" class="fil1" points="2059.36,1744.32 2115.51,1744.32 1935.53,2128.81 1879.38,2128.81 1965.64,1944.49 1867.49,1744.32 1924.77,1744.32 1993.39,1887.87 "/>
  </g>
 </g>
</svg>
